# xmcd
#
# Track frame offsets:
#	150
#	15168
#	29265
#	44965
#	60484
#	75557
#	92777
#	108402
#	120279
#	134035
#	149372
#	161239
#	177489
#	191445
#	208745
#	226382
#	244775
#	259172
#	272730
#	294313
#	310826
#	327550
#
# Disc length: 4554 seconds
#
# Revision: 0
# Processed by: cddbd v1.5.1PL2 Copyright (c) Steve Scherf et al.
# Submitted via: EasyCDDAExtractor 4.5.0.1
#
DISCID=4311c816
DTITLE=VARIOS - YO SE QUE TE ACORDARAS
DYEAR=1900
DGENRE=
TTITLE0=Yo sé que te acordarás
TTITLE1=Lo que te queda
TTITLE2=Te deseo amor
TTITLE3=Un sueño
TTITLE4=Vamos a platicar
TTITLE5=Hoy te confieso
TTITLE6=A tu recuerdo
TTITLE7=Celoso
TTITLE8=Peleas
TTITLE9=LA ULTIMA CANCION
TTITLE10=Siempre te recordaré
TTITLE11=LLorarás
TTITLE12=Adoro
TTITLE13=AMOR MARINERO
TTITLE14=Por el amor de una mujer
TTITLE15=ENCADENADO
TTITLE16=Una vieja cancion de amor
TTITLE17=No
TTITLE18=O TU, O NADA
TTITLE19=Me acordaré de ti
TTITLE20=Luna blanca
TTITLE21=Amor, no llores
EXTD=
EXTT0=
EXTT1=
EXTT2=
EXTT3=
EXTT4=
EXTT5=
EXTT6=
EXTT7=
EXTT8=
EXTT9=
EXTT10=
EXTT11=
EXTT12=
EXTT13=
EXTT14=
EXTT15=
EXTT16=
EXTT17=
EXTT18=
EXTT19=
EXTT20=
EXTT21=
PLAYORDER=
